<?xml version="1.0" standalone="no"?>
<!DOCTYPE svg PUBLIC "-//W3C//DTD SVG 20010904//EN"
 "http://www.w3.org/TR/2001/REC-SVG-20010904/DTD/svg10.dtd">
<svg version="1.0" xmlns="http://www.w3.org/2000/svg"
 width="128.000000pt" height="128.000000pt" viewBox="0 0 128.000000 128.000000"
 preserveAspectRatio="xMidYMid meet">

<g transform="translate(0.000000,128.000000) scale(0.100000,-0.100000)"
fill="#000000" stroke="none">
<path d="M567 1233 c-155 -142 -557 -538 -562 -554 -6 -19 10 -59 29 -71 20
-13 69 -8 88 9 17 16 18 6 18 -276 l0 -292 25 -24 24 -25 449 0 c439 0 450 0
476 21 l26 20 0 290 c0 266 4 313 25 279 7 -12 65 -13 81 -2 19 12 35 52 29
71 -3 10 -66 77 -140 150 l-135 133 0 137 c0 75 -4 141 -8 147 -13 19 -50 34
-69 27 -44 -15 -53 -33 -53 -110 l0 -74 -105 95 c-62 57 -113 96 -125 96 -11
0 -44 -21 -73 -47z m259 -299 l184 -176 0 -309 0 -309 -365 0 -365 0 0 313 -1
312 178 172 c98 95 180 172 182 173 2 0 86 -79 187 -176z"/>
</g>
</svg>
